<svg xmlns="http://www.w3.org/2000/svg" width="48" height="48" fill="none" viewBox="0 0 48 48">
  <defs>
    <linearGradient id="brand-grad" x1="0%" y1="0%" x2="100%" y2="100%">
      <stop offset="0%" stop-color="#6366f1" />
      <stop offset="100%" stop-color="#a855f7" />
    </linearGradient>
    <filter id="glow" x="-20%" y="-20%" width="140%" height="140%">
      <feGaussianBlur stdDeviation="2" result="blur" />
      <feComposite in="SourceGraphic" in2="blur" operator="over" />
    </filter>
  </defs>
  <rect width="48" height="48" rx="12" fill="url(#brand-grad)" />
  <!-- Rocket contour -->
  <path d="M24 9C24 9 32 17 32 26C32 31 29 33 24 33C19 33 16 31 16 26C16 17 24 9 24 9Z" fill="#ffffff" filter="url(#glow)" />
  <!-- Rocket window -->
  <circle cx="24" cy="20" r="3" fill="#6366f1" />
  <!-- Wings / Thrusters -->
  <path d="M16 26C13 28 12 33 12 33C12 33 17 32 19 30" stroke="#ffffff" stroke-width="2" stroke-linecap="round" stroke-linejoin="round" />
  <path d="M32 26C35 28 36 33 36 33C36 33 31 32 29 30" stroke="#ffffff" stroke-width="2" stroke-linecap="round" stroke-linejoin="round" />
  <!-- Rocket flame -->
  <path d="M24 33C24 33 22 36 21 38C20 40 24 42 24 42C24 42 28 40 27 38C26 36 24 33 24 33Z" fill="#fde047" />
  <path d="M24 33C24 33 23 35 22.5 36.5C22 38 24 39.5 24 39.5C24 39.5 26 38 25.5 36.5C25 35 24 33 24 33Z" fill="#f97316" />
</svg>